<?xml version="1.0" encoding="UTF-8"?>
<svg width="39px" height="32px" viewBox="0 0 39 32" version="1.1" xmlns="http://www.w3.org/2000/svg" xmlns:xlink="http://www.w3.org/1999/xlink">
    <!-- Generator: Sketch 47 (45396) - http://www.bohemiancoding.com/sketch -->
    <title>twitter-logo-silhouette</title>
    <desc>Created with Sketch.</desc>
    <defs></defs>
    <g id="Page-1" stroke="none" stroke-width="1" fill="none" fill-rule="evenodd">
        <g id="home" transform="translate(-259.000000, -864.000000)" fill-rule="nonzero" fill="#7C7C7C">
            <g id="social" transform="translate(171.000000, 864.000000)">
                <g id="twitter-logo-silhouette" transform="translate(88.000000, 0.000000)">
                    <path d="M39,3.80774297 C37.5645833,4.44909237 36.024402,4.88404819 34.4061569,5.07823293 C36.0584951,4.08051406 37.3233186,2.49799197 37.9227843,0.618088353 C36.3728529,1.54204016 34.6620147,2.21294779 32.8390833,2.57664257 C31.3793235,1.00639357 29.3029559,0.0283373494 26.9999167,0.0283373494 C22.5815735,0.0283373494 18.9991176,3.6406747 18.9991176,8.09342972 C18.9991176,8.72494779 19.0697892,9.341751 19.2062892,9.93156627 C12.5580637,9.59485944 6.66288235,6.3831004 2.71731863,1.50271486 C2.02761765,2.69211245 1.6352598,4.07800803 1.6352598,5.55739759 C1.6352598,8.35636948 3.0487549,10.8260241 5.19337255,12.2709076 C3.88222059,12.2266988 2.64906863,11.863004 1.5694951,11.2584739 L1.5694951,11.3592289 C1.5694951,15.2664418 4.32823529,18.5273574 7.98620588,19.2695261 C7.3160049,19.4513735 6.60928922,19.5521285 5.87816667,19.5521285 C5.36154412,19.5521285 4.86193627,19.5005301 4.37207843,19.4022169 C5.39073039,22.6090924 8.34447059,24.9411084 11.8440833,25.0050442 C9.10726471,27.1675502 5.65640196,28.452755 1.9082598,28.452755 C1.26246569,28.452755 0.626357843,28.4134297 6.37254902e-05,28.3421687 C3.54109804,30.6349237 7.7450049,31.9717269 12.2632696,31.9717269 C26.9805441,31.9717269 35.02525,19.6799357 35.02525,9.01988755 L34.9984216,7.97551807 C36.5702745,6.84504418 37.9301127,5.42470683 39,3.80774297 Z" id="Shape"></path>
                </g>
            </g>
        </g>
    </g>
</svg>